# xmcd
#
# Track frame offsets: 
#        150
#        7333
#        34298
#        56593
#        78682
#        99208
#        133545
#        151314
#        171268
#        191108
#        207029
#        230459
#        250631
#        270884
#        290462
#        309985
#
# Disc length: 4554 seconds
#
# Revision: 1
# Processed by: cddbd v1.5.2PL0 Copyright (c) Steve Scherf et al.
# Submitted via: ExactAudioCopyFreeDBPlugin 1.0
#
DISCID=d411c810
DTITLE=群星 - 试音宝典10号
DYEAR=2010
DGENRE=Acid
TTITLE0=序曲·管弦乐
TTITLE1=天女散花
TTITLE2=珍惜
TTITLE3=月光下的凤尾竹
TTITLE4=鸿雁
TTITLE5=白毛女随想曲
TTITLE6=几多愁
TTITLE7=渔家姑娘在海边
TTITLE8=世界多美丽
TTITLE9=情难枕
TTITLE10=春之圆舞曲
TTITLE11=没什么人比你更爱我
TTITLE12=冰山上的雪莲
TTITLE13=雨季
TTITLE14=无奈
TTITLE15=鼓王 注意音量小心喇叭
EXTD=
EXTT0=
EXTT1=
EXTT2=
EXTT3=
EXTT4=
EXTT5=
EXTT6=
EXTT7=
EXTT8=
EXTT9=
EXTT10=
EXTT11=
EXTT12=
EXTT13=
EXTT14=
EXTT15=
PLAYORDER=
